# xmcd
#
# Track frame offsets:
#	150
#	17328
#	34566
#	56805
#	72105
#	86165
#	106948
#	122897
#	139736
#	157709
#	174624
#	192341
#	213853
#
# Disc length: 3389 seconds
#
# Revision: 0
# Processed by: cddbd v1.5.2PL0 Copyright (c) Steve Scherf et al.
# Submitted via: VUPlayer 2.49
#
DISCID=a80d3b0d
DTITLE=Damn Fine Gentlemen - Damn Fine Gentlemen
DYEAR=2011
DGENRE=Blues 
TTITLE0=There Goes My Baby
TTITLE1=Oh My My
TTITLE2=Dalton
TTITLE3=Big Moon
TTITLE4=If I Ever Had My Way
TTITLE5=Devil's Farm
TTITLE6=Down To The River
TTITLE7=Messed Up
TTITLE8=The Upper Hand
TTITLE9=Sorry I'm Late
TTITLE10=Over My Head
TTITLE11=Don't Make Me Do
TTITLE12=Untitled
EXTD=
EXTT0=
EXTT1=
EXTT2=
EXTT3=
EXTT4=
EXTT5=
EXTT6=
EXTT7=
EXTT8=
EXTT9=
EXTT10=
EXTT11=
EXTT12=
PLAYORDER=
